<svg xmlns="http://www.w3.org/2000/svg" xmlns:svg="http://www.w3.org/2000/svg" xmlns:xlink="http://www.w3.org/1999/xlink" id="svg4878" width="64" height="64" version="1.1"><defs id="defs4880"><marker id="Arrow2Send" orient="auto" refX="0" refY="0" style="overflow:visible"><path id="path4235" d="M 8.7185878,4.0337352 L -2.2072895,0.016013256 L 8.7185884,-4.0017078 C 6.9730900,-1.6296469 6.9831476,1.6157441 8.7185878,4.0337352 z" transform="scale(0.3) rotate(180) translate(-2.3,0)" style="font-size:12;fill-rule:evenodd;stroke-width:.625;stroke-linejoin:round"/></marker><marker id="Arrow2Mend" orient="auto" refX="0" refY="0" style="overflow:visible"><path id="path4229" d="M 8.7185878,4.0337352 L -2.2072895,0.016013256 L 8.7185884,-4.0017078 C 6.9730900,-1.6296469 6.9831476,1.6157441 8.7185878,4.0337352 z" transform="scale(0.6) rotate(180) translate(0,0)" style="font-size:12;fill-rule:evenodd;stroke-width:.625;stroke-linejoin:round"/></marker><marker id="Arrow2Sstart" orient="auto" refX="0" refY="0" style="overflow:visible"><path id="path4232" d="M 8.7185878,4.0337352 L -2.2072895,0.016013256 L 8.7185884,-4.0017078 C 6.9730900,-1.6296469 6.9831476,1.6157441 8.7185878,4.0337352 z" transform="scale(0.3) translate(-2.3,0)" style="font-size:12;fill-rule:evenodd;stroke-width:.625;stroke-linejoin:round"/></marker><marker id="Arrow1Lend" orient="auto" refX="0" refY="0" style="overflow:visible"><path id="path4205" d="M 0.0,0.0 L 5.0,-5.0 L -12.5,0.0 L 5.0,5.0 L 0.0,0.0 z" transform="scale(0.8) rotate(180) translate(12.5,0)" style="fill-rule:evenodd;stroke:#000;stroke-width:1pt;marker-start:none"/></marker><marker id="Arrow2Lend" orient="auto" refX="0" refY="0" style="overflow:visible"><path id="path4223" d="M 8.7185878,4.0337352 L -2.2072895,0.016013256 L 8.7185884,-4.0017078 C 6.9730900,-1.6296469 6.9831476,1.6157441 8.7185878,4.0337352 z" transform="scale(1.1) rotate(180) translate(1,0)" style="font-size:12;fill-rule:evenodd;stroke-width:.625;stroke-linejoin:round"/></marker><linearGradient id="linearGradient5543"><stop style="stop-color:#00f;stop-opacity:1" id="stop5545" offset="0"/><stop id="stop5547" offset=".821" style="stop-color:#00f;stop-opacity:.51999998"/><stop style="stop-color:#000;stop-opacity:1" id="stop5549" offset="1"/></linearGradient><linearGradient id="linearGradient5523"><stop style="stop-color:red;stop-opacity:1" id="stop5525" offset="0"/><stop id="stop5527" offset=".821" style="stop-color:red;stop-opacity:.51999998"/><stop style="stop-color:#f70000;stop-opacity:0" id="stop5529" offset="1"/></linearGradient><linearGradient id="linearGradient5404"><stop id="stop5406" offset="0" style="stop-color:#00f;stop-opacity:1"/><stop style="stop-color:#00f;stop-opacity:.51999998" id="stop5418" offset=".821"/><stop id="stop5408" offset="1" style="stop-color:#00f;stop-opacity:0"/></linearGradient><radialGradient id="radialGradient5416" cx="12.364" cy="12.909" r="2.877" fx="12.364" fy="12.909" gradientUnits="userSpaceOnUse" xlink:href="#linearGradient5404"/><radialGradient id="radialGradient5513" cx="12.364" cy="12.909" r="2.877" fx="12.364" fy="12.909" gradientUnits="userSpaceOnUse" xlink:href="#linearGradient5404"/><radialGradient id="radialGradient5521" cx="12.364" cy="12.909" r="2.877" fx="12.364" fy="12.909" gradientUnits="userSpaceOnUse" xlink:href="#linearGradient5523"/><radialGradient id="radialGradient5537" cx="12.364" cy="12.909" r="2.877" fx="12.364" fy="12.909" gradientUnits="userSpaceOnUse" xlink:href="#linearGradient5523"/></defs><metadata id="metadata4883"/><g id="layer1"><path style="fill:url(#radialGradient5416);fill-opacity:1;stroke:none" id="path4886" d="m 15.090909,12.909091 a 2.7272727,2.7272727 0 1 1 -5.4545457,0 2.7272727,2.7272727 0 1 1 5.4545457,0 z" transform="matrix(2.3460632,0,0,2.3460632,-20.350025,-23.017558)"/><path id="path5511" d="m 15.090909,12.909091 a 2.7272727,2.7272727 0 1 1 -5.4545457,0 2.7272727,2.7272727 0 1 1 5.4545457,0 z" transform="matrix(2.3004579,0,0,2.3004579,15.218551,-13.096846)" style="fill:url(#radialGradient5513);fill-opacity:1;stroke:none"/><path style="fill:url(#radialGradient5521);fill-opacity:1;stroke:none" id="path5519" d="m 15.090909,12.909091 a 2.7272727,2.7272727 0 1 1 -5.4545457,0 2.7272727,2.7272727 0 1 1 5.4545457,0 z" transform="matrix(2.0696173,0,0,2.0696173,-18.169969,30.040595)"/><path style="fill:url(#radialGradient5537);fill-opacity:1;stroke:none" id="path5535" d="m 15.090909,12.909091 a 2.7272727,2.7272727 0 1 1 -5.4545457,0 2.7272727,2.7272727 0 1 1 5.4545457,0 z" transform="matrix(2.2771946,0,0,2.2771946,27.448873,26.779359)"/><path style="fill:none;stroke:#000;stroke-opacity:1;stroke-width:3;stroke-miterlimit:4;stroke-dasharray:none;stroke-dashoffset:0" id="path5539" d="m 56,32.81818 a 24.545454,25.181818 0 1 1 -49.0909081,0 24.545454,25.181818 0 1 1 49.0909081,0 z" transform="translate(0.54545454,-1.4545455)"/><path style="fill:none;stroke:#000;stroke-width:3;stroke-linecap:butt;stroke-linejoin:miter;stroke-miterlimit:4;stroke-opacity:1;stroke-dasharray:none;marker-end:url(#Arrow2Send);display:inline" id="path7280" d="M 7.0829554,13.471573 2.7779633,30.450751"/><path id="path8590" d="M 47.985018,12.054414 56.200334,3.4190317" style="fill:none;stroke:#000;stroke-width:3;stroke-linecap:butt;stroke-linejoin:miter;stroke-miterlimit:4;stroke-opacity:1;stroke-dasharray:none;marker-end:url(#Arrow2Send);display:inline"/><path style="fill:none;stroke:#000;stroke-width:3;stroke-linecap:butt;stroke-linejoin:miter;stroke-miterlimit:4;stroke-opacity:1;stroke-dasharray:none;marker-end:url(#Arrow2Send);display:inline" id="path8594" d="M 8.782486,51.279094 13.996661,30.343907"/><path id="path8596" d="M 57.057085,50.136432 61.435726,31.946578" style="fill:none;stroke:#000;stroke-width:3;stroke-linecap:butt;stroke-linejoin:miter;stroke-miterlimit:4;stroke-opacity:1;stroke-dasharray:none;marker-end:url(#Arrow2Send);display:inline"/></g></svg>