<svg xmlns="http://www.w3.org/2000/svg" xmlns:xlink="http://www.w3.org/1999/xlink" id="Layer_1" x="0" y="0" enable-background="new 169.5 67.5 48 48" version="1.1" viewBox="169.5 67.5 48 48" xml:space="preserve"><g><rect width="9.009" height="9.009" x="175.482" y="73.482" fill="#333" transform="matrix(-8.964758e-11 1 -1 -8.964758e-11 257.9731 -102)"/><rect width="9.009" height="9.009" x="202.509" y="73.482" fill="#333" transform="matrix(-8.964758e-11 1 -1 -8.964758e-11 285 -129.0269)"/><rect width="9.009" height="9.009" x="193.5" y="73.482" fill="#F0F0F0" transform="matrix(-8.964758e-11 1 -1 -8.964758e-11 275.991 -120.0179)"/><rect width="9.009" height="9.009" x="184.491" y="73.482" fill="#666" transform="matrix(-8.964758e-11 1 -1 -8.964758e-11 266.9821 -111.009)"/><rect width="9.009" height="9.009" x="175.482" y="82.491" fill="#666" transform="matrix(-8.964758e-11 1 -1 -8.964758e-11 266.9821 -92.991)"/><rect width="9.009" height="9.009" x="202.509" y="82.491" fill="#666" transform="matrix(-8.964758e-11 1 -1 -8.964758e-11 294.0089 -120.0179)"/><rect width="9.009" height="9.009" x="193.5" y="82.491" fill="#B2B2B2" transform="matrix(-8.964758e-11 1 -1 -8.964758e-11 285 -111.009)"/><rect width="9.009" height="9.009" x="184.491" y="82.491" fill="#333" transform="matrix(-8.964758e-11 1 -1 -8.964758e-11 275.991 -102)"/><rect width="9.009" height="9.009" x="175.482" y="91.5" fill="#F0F0F0" transform="matrix(-9.005170e-11 1 -1 -9.005170e-11 275.991 -83.9821)"/><rect width="9.009" height="9.009" x="202.509" y="91.5" fill="#B2B2B2" transform="matrix(-9.025332e-11 1 -1 -9.025332e-11 303.0179 -111.009)"/><rect width="9.009" height="9.009" x="193.5" y="91.5" fill="#333" transform="matrix(-9.025332e-11 1 -1 -9.025332e-11 294.0089 -102)"/><rect width="9.009" height="9.009" x="184.491" y="91.5" fill="#B2B2B2" transform="matrix(-9.005170e-11 1 -1 -9.005170e-11 285 -92.991)"/><rect width="9.009" height="9.009" x="175.482" y="100.509" fill="#333" transform="matrix(-8.964758e-11 1 -1 -8.964758e-11 285 -74.9731)"/><rect width="9.009" height="9.009" x="202.509" y="100.509" fill="#333" transform="matrix(-8.964758e-11 1 -1 -8.964758e-11 312.0269 -102)"/><rect width="9.009" height="9.009" x="193.5" y="100.509" fill="#B2B2B2" transform="matrix(-8.964758e-11 1 -1 -8.964758e-11 303.0179 -92.991)"/><rect width="9.009" height="9.009" x="184.491" y="100.509" fill="#666" transform="matrix(-8.964758e-11 1 -1 -8.964758e-11 294.0089 -83.9821)"/></g></svg>