<svg xmlns="http://www.w3.org/2000/svg" xmlns:xlink="http://www.w3.org/1999/xlink" id="Layer_1" x="0" y="0" version="1.1" viewBox="0 0 48 48" xml:space="preserve" style="enable-background:new 0 0 48 48"><style type="text/css">.st0{fill:#fff}.st1{fill:#333}</style><g><g><path d="M25,8H13v32h22V17c0-4.1-8-1-8-1C28,12,27,8,25,8z" class="st0"/><path d="M28,6H13h-2v2v32v2h2h22h2v-2V16v-2L28,6z M35,40H13V8h12c2,0,3,4,2,8c0,0,8-3.1,8,1V40z" class="st1"/></g><g><path d="M23.7,14.8h0.5l8.5,18.4H15.3L23.7,14.8z M17.9,31.6l10.4,0l-5.1-11.8L17.9,31.6z" class="st1"/></g></g></svg>