<svg xmlns="http://www.w3.org/2000/svg" xmlns:xlink="http://www.w3.org/1999/xlink" id="Layer_1" x="0" y="0" version="1.1" viewBox="0 0 48 48" xml:space="preserve" style="enable-background:new 0 0 48 48"><style type="text/css">.st1{fill:#333}.st3{fill:#b2b2b2}.st4{fill:#f0f0f0}.st5{fill:#666}.st6{fill:none;stroke:#333;stroke-miterlimit:10}</style><g><rect width="7.8" height="7.8" x="35.8" y="12.5" class="st1" transform="matrix(-8.965824e-11 1 -1 -8.965824e-11 56 -23.25)"/><rect width="7.8" height="7.8" x="28" y="12.5" class="st4" transform="matrix(-8.965824e-11 1 -1 -8.965824e-11 48.25 -15.5)"/><rect width="7.8" height="7.8" x="20.2" y="12.5" class="st5" transform="matrix(-8.965824e-11 1 -1 -8.965824e-11 40.5 -7.75)"/><rect width="7.8" height="7.8" x="35.8" y="20.2" class="st5" transform="matrix(-8.965824e-11 1 -1 -8.965824e-11 63.75 -15.5)"/><rect width="7.8" height="7.8" x="28" y="20.2" class="st3" transform="matrix(-8.965824e-11 1 -1 -8.965824e-11 56 -7.75)"/><rect width="7.8" height="7.8" x="20.2" y="20.2" class="st1" transform="matrix(-8.965824e-11 1 -1 -8.965824e-11 48.25 1.617309e-09)"/><rect width="7.8" height="7.8" x="35.8" y="28" class="st3" transform="matrix(-9.012809e-11 1 -1 -9.012809e-11 71.5 -7.75)"/><rect width="7.8" height="7.8" x="28" y="28" class="st1" transform="matrix(-9.012809e-11 1 -1 -9.012809e-11 63.75 3.720483e-09)"/><rect width="7.8" height="7.8" x="20.2" y="28" class="st3" transform="matrix(-9.012809e-11 1 -1 -9.012809e-11 56 7.75)"/><g><rect width="7.8" height="7.8" x="12.5" y="12.5" class="st1" transform="matrix(-8.965824e-11 1 -1 -8.965824e-11 32.75 2.257856e-10)"/><rect width="7.8" height="7.8" x="12.5" y="20.2" class="st5" transform="matrix(-8.965824e-11 1 -1 -8.965824e-11 40.5 7.75)"/><rect width="7.8" height="7.8" x="12.5" y="28" class="st4" transform="matrix(-9.012809e-11 1 -1 -9.012809e-11 48.25 15.5)"/><rect width="7.8" height="7.8" x="12.5" y="35.8" class="st1" transform="matrix(-8.965824e-11 1 -1 -8.965824e-11 56 23.25)"/></g><rect width="7.8" height="7.8" x="35.8" y="35.8" class="st1" transform="matrix(-8.965824e-11 1 -1 -8.965824e-11 79.25 5.791428e-09)"/><rect width="7.8" height="7.8" x="28" y="35.8" class="st3" transform="matrix(-8.965824e-11 1 -1 -8.965824e-11 71.5 7.75)"/><rect width="7.8" height="7.8" x="20.2" y="35.8" class="st5" transform="matrix(-8.965824e-11 1 -1 -8.965824e-11 63.75 15.5)"/><polyline points="39.5 12 39.5 9 31.5 9 31.5 12" class="st6"/><polyline points="24.5 12 24.5 9 16.5 9 16.5 12" class="st6"/><polyline points="20.2 9 20.2 5 35.5 5 35.5 9" class="st6"/><polyline points="12 16.5 9 16.5 9 24.5 12 24.5" class="st6"/><polyline points="12 31.5 9 31.5 9 39.5 12 39.5" class="st6"/><polyline points="9 35.8 5 35.8 5 20.5 9 20.5" class="st6"/></g></svg>