<svg xmlns="http://www.w3.org/2000/svg" xmlns:xlink="http://www.w3.org/1999/xlink" id="Layer_1" width="48" height="48" x="0" y="0" enable-background="new 0 0 48 48" version="1.1" viewBox="0 0 48 48" xml:space="preserve"><polygon fill="#333" points="27 24 23 21 23 23 21 23 21 25 23 25 23 27"/><g><path fill="#333" d="M12.924,17.069c-1.346,0.318-2.176,1.669-1.854,3.012c0.32,1.342,1.669,2.172,3.011,1.85 c1.341-0.317,2.172-1.664,1.852-3.007C15.613,17.578,14.264,16.748,12.924,17.069z"/></g><g><path fill="#333" d="M12.924,26.069c-1.346,0.318-2.176,1.669-1.854,3.012c0.32,1.342,1.669,2.172,3.011,1.85 c1.341-0.317,2.172-1.664,1.852-3.007C15.613,26.578,14.264,25.748,12.924,26.069z"/></g><g><polygon fill="#666" points="7 11 7 37 9 37 11 37 11 35 9 35 9 13 11 13 11 11 9 11"/><polygon fill="#666" points="16 11 16 13 18 13 18 35 16 35 16 37 18 37 20 37 20 11 18 11"/><polygon fill="#666" points="28 11 28 37 30 37 32 37 32 35 30 35 30 13 32 13 32 11 30 11"/><polygon fill="#666" points="39 11 37 11 37 13 39 13 39 35 37 35 37 37 39 37 41 37 41 11"/></g><rect width="5" height="5" x="32" y="17" fill="#333"/><rect width="5" height="5" x="32" y="26" fill="#333"/></svg>