<svg xmlns="http://www.w3.org/2000/svg" xmlns:xlink="http://www.w3.org/1999/xlink" id="Layer_1" x="0" y="0" version="1.1" viewBox="0 0 48 48" xml:space="preserve" style="enable-background:new 0 0 48 48"><style type="text/css">.st1{fill:#333}.st3{fill:#b2b2b2}.st5{fill:#666}</style><g><polygon points="19.1 14.7 16.3 14.7 16.3 11.9 13.5 11.9 13.5 14.7 10.7 14.7 10.7 17.5 13.5 17.5 13.5 20.3 16.3 20.3 16.3 17.5 19.1 17.5" class="st1"/><g><path d="M42.9,20c1.1-1.9,0.5-4.4-1.4-5.5c-1.9-1.1-4.3-0.5-5.5,1.4c-1.1,1.9-0.5,4.3,1.4,5.5 C39.3,22.5,41.8,21.9,42.9,20z" class="st5"/></g><g><path d="M24.5,23.4c0-2.2-1.7-4-3.9-4.1c-2.2,0-4,1.7-4.1,3.9c0,2.2,1.7,4,3.9,4.1C22.6,27.4,24.5,25.6,24.5,23.4z" class="st1"/></g><g><path d="M14.7,24.6c0-2.2-1.7-4-3.9-4.1c-2.2,0-4,1.7-4.1,3.9c0,2.2,1.7,4,3.9,4.1C12.8,28.6,14.6,26.8,14.7,24.6z" class="st3"/></g><g><path d="M12.5,11c0-2.2-1.7-4-3.9-4.1c-2.2,0-4,1.7-4.1,3.9c0,2.2,1.7,4,3.9,4.1C10.6,15,12.5,13.2,12.5,11z" class="st3"/></g><g><path d="M30.7,17c1.1-1.9,0.5-4.4-1.4-5.5c-1.9-1.1-4.3-0.5-5.5,1.4c-1.1,1.9-0.5,4.3,1.4,5.5 C27.1,19.5,29.6,18.9,30.7,17z" class="st5"/></g><g><path d="M34.4,38.9c0-2.2-1.7-4-3.9-4.1c-2.2,0-4,1.7-4.1,3.9c0,2.2,1.7,4,3.9,4.1C32.6,42.9,34.4,41.1,34.4,38.9z" class="st1"/></g><g><path d="M20.5,37.8c0-2.2-1.7-4-3.9-4.1c-2.2,0-4,1.7-4.1,3.9c0,2.2,1.7,4,3.9,4.1C18.6,41.7,20.5,40,20.5,37.8z" class="st1"/></g><g><path d="M24.5,9.2c0-2.2-1.7-4-3.9-4.1c-2.2,0-4,1.7-4.1,3.9c0,2.2,1.7,4,3.9,4.1C22.6,13.2,24.5,11.4,24.5,9.2z" class="st3"/></g><g><path d="M40.5,32.5c1.1-1.9,0.5-4.4-1.4-5.5c-1.9-1.1-4.3-0.5-5.5,1.4c-1.1,1.9-0.5,4.3,1.4,5.5 C36.9,35,39.4,34.4,40.5,32.5z" class="st5"/></g><polygon points="28.7 30.1 25.9 30.1 25.9 27.3 23.1 27.3 23.1 30.1 20.3 30.1 20.3 32.9 23.1 32.9 23.1 35.7 25.9 35.7 25.9 32.9 28.7 32.9" class="st1"/><polygon points="35.7 21.7 32.9 21.7 32.9 18.9 30.1 18.9 30.1 21.7 27.3 21.7 27.3 24.5 30.1 24.5 30.1 27.3 32.9 27.3 32.9 24.5 35.7 24.5" class="st1"/></g></svg>