<svg xmlns="http://www.w3.org/2000/svg" xmlns:xlink="http://www.w3.org/1999/xlink" id="Layer_1" x="0" y="0" version="1.1" viewBox="0 0 48 48" xml:space="preserve" style="enable-background:new 0 0 48 48"><style type="text/css">.st0{fill:none;stroke:#333;stroke-width:2;stroke-miterlimit:10}.st1{fill:#333}.st2{fill:none;stroke:#333;stroke-width:1.5;stroke-miterlimit:10}</style><g><path d="M30.7,17.2c6.7,0,12.2,5.5,12.2,12.2s-5.5,12.2-12.2,12.2c-6.7,0-12.2-5.5-12.2-12.2S24,17.2,30.7,17.2z" class="st0"/><path d="M13,6.4c4.4,0,7.9,3.5,7.9,7.9s-3.5,7.9-7.9,7.9c-4.4,0-7.9-3.5-7.9-7.9S8.6,6.4,13,6.4z" class="st0"/><g><path d="M17.4,14.4c0-2.4-1.9-4.4-4.4-4.5c-2.4,0-4.4,1.9-4.5,4.4c0,2.4,1.9,4.4,4.4,4.5 C15.4,18.7,17.4,16.8,17.4,14.4z" class="st1"/></g><g><path d="M35.1,29.3c0-2.4-1.9-4.4-4.4-4.5c-2.4,0-4.4,1.9-4.5,4.4c0,2.4,1.9,4.4,4.4,4.5 C33.1,33.7,35.1,31.7,35.1,29.3z" class="st1"/></g><line x1="13" x2="30.7" y1="14.3" y2="29.4" class="st2"/></g></svg>