<svg xmlns="http://www.w3.org/2000/svg" xmlns:xlink="http://www.w3.org/1999/xlink" id="Layer_1" x="0" y="0" version="1.1" viewBox="0 0 48 48" xml:space="preserve" style="enable-background:new 0 0 48 48"><style type="text/css">.st1{fill:#333}.st2{fill:none;stroke:#333;stroke-width:2;stroke-miterlimit:10}.st3{fill:#b2b2b2}</style><g><polygon points="5.8 5.9 33.5 6 42.2 14.2 42.2 42 14.7 42.1 5.8 42.1" class="st2"/><polyline points="15.5 5.9 15.5 16.3 27.1 16.3 29.3 16.3 29.3 6" class="st2"/><g><rect width="9.5" height="9.5" x="14.5" y="22.1" class="st1" transform="matrix(-8.999219e-11 1 -1 -8.999219e-11 46.0938 7.5937)"/><rect width="9.5" height="9.5" x="24" y="22.1" class="st3" transform="matrix(-8.999219e-11 1 -1 -8.999219e-11 55.5938 -1.9063)"/><g><rect width="9.5" height="9.5" x="14.5" y="31.6" class="st3" transform="matrix(-8.999219e-11 1 -1 -8.999219e-11 55.5937 17.0938)"/><rect width="9.5" height="9.5" x="24" y="31.6" class="st1" transform="matrix(-8.960939e-11 1 -1 -8.960939e-11 65.0937 7.5937)"/></g></g></g></svg>