<svg xmlns="http://www.w3.org/2000/svg" xmlns:xlink="http://www.w3.org/1999/xlink" id="Layer_1" x="0" y="0" version="1.1" viewBox="0 0 48 48" xml:space="preserve" style="enable-background:new 0 0 48 48"><style type="text/css">.st0{fill:#fff}.st1{fill:none;stroke:#333;stroke-width:3;stroke-miterlimit:10}.st2{fill:#b2b2b2}</style><g><polygon points="22.7 10.6 14 5.6 5.3 10.6 5.3 20.7 14 25.7 22.7 20.7" class="st0"/><polygon points="41.9 10.8 33.2 5.8 24.5 10.8 24.5 20.9 33.2 25.9 41.9 20.9" class="st0"/><polygon points="32.9 26.9 24.2 21.9 15.5 26.9 15.5 37 24.2 42 32.9 37" class="st0"/><polygon points="24 10.8 14.8 5.5 5.7 10.8 5.7 21.4 14.8 26.6 24 21.4" class="st1"/><polygon points="42.3 10.8 33.2 5.5 24 10.8 24 21.4 33.2 26.6 42.3 21.4" class="st1"/><polygon points="33.2 26.6 24 21.4 14.8 26.6 14.8 37.2 24 42.5 33.2 37.2" class="st1"/><circle cx="24" cy="31.9" r="6.9" class="st2"/><circle cx="24" cy="31.9" r="6.9" class="st2"/><circle cx="33.2" cy="16.1" r="5" class="st2"/></g></svg>