<svg xmlns="http://www.w3.org/2000/svg" xmlns:xlink="http://www.w3.org/1999/xlink" id="Layer_1" width="48" height="48" x="0" y="0" enable-background="new 0 0 48 48" version="1.1" viewBox="0 0 48 48" xml:space="preserve"><g><g><circle cx="12.75" cy="11.001" r="2.999" fill="#666"/></g><g><circle cx="10.75" cy="21.001" r="2.999" fill="#666"/></g><g><circle cx="23.75" cy="11.001" r="2.999" fill="#666"/></g><g><path fill="#B2B2B2" d="M17,17v23h23V17H17z M20.582,23.697c-0.384-1.611,0.611-3.229,2.223-3.613s3.23,0.611,3.613,2.225 c0.385,1.609-0.611,3.229-2.225,3.611C22.582,26.305,20.966,25.309,20.582,23.697z M26.193,35.92 c-1.611,0.385-3.228-0.611-3.611-2.223s0.611-3.229,2.223-3.613s3.23,0.611,3.613,2.225C28.803,33.918,27.807,35.537,26.193,35.92 z M35.193,36.92c-1.611,0.385-3.228-0.611-3.611-2.223s0.611-3.229,2.223-3.613s3.23,0.611,3.613,2.225 C37.803,34.918,36.807,36.537,35.193,36.92z M35.193,27.92c-1.611,0.385-3.228-0.611-3.611-2.223s0.611-3.229,2.223-3.613 s3.23,0.611,3.613,2.225C37.803,25.918,36.807,27.537,35.193,27.92z"/><g><circle cx="23.499" cy="23.002" r="2.999" fill="#666"/></g><g><circle cx="25.499" cy="33.002" r="2.999" fill="#333"/></g><g><circle cx="34.499" cy="34.002" r="2.999" fill="#333"/></g><g><circle cx="34.499" cy="25.002" r="2.999" fill="#333"/></g></g></g></svg>