<svg xmlns="http://www.w3.org/2000/svg" xmlns:xlink="http://www.w3.org/1999/xlink" id="Layer_1" width="48" height="48" x="0" y="0" enable-background="new 0 0 48 48" version="1.1" viewBox="0 0 48 48" xml:space="preserve"><path fill="none" stroke="#B2B2B2" stroke-miterlimit="10" stroke-width="1.7" d="M4.072,22.461"/><circle cx="10.23" cy="15.887" r="6.137" fill="#333"/><circle cx="10.23" cy="32.112" r="6.138" fill="#FFF" stroke="#333" stroke-miterlimit="10"/><circle cx="37.77" cy="24" r="6.139" fill="#9B9B9B"/><g><path fill="#333" stroke="#333" stroke-miterlimit="10" d="M20.23,10.595V9.369c1.852,0,3.083,0.391,3.692,1.17 c0.608,0.779,0.912,1.898,0.912,3.358v6.81c0,1.373,0.558,2.468,1.671,3.284c-1.113,1.189-1.671,2.322-1.671,3.4v6.93 c0,1.686-0.354,2.824-1.062,3.42c-0.708,0.594-1.889,0.891-3.542,0.891v-1.225c1.333,0,2.201-0.217,2.605-0.652 c0.404-0.432,0.607-1.242,0.607-2.434v-6.93c0-0.781,0.167-1.426,0.501-1.932c0.174-0.322,0.521-0.812,1.039-1.468 c-1.025-0.742-1.54-1.836-1.54-3.284v-6.81c0-1.174-0.199-2.019-0.598-2.532C22.446,10.851,21.575,10.595,20.23,10.595z"/></g></svg>