<svg xmlns="http://www.w3.org/2000/svg" xmlns:xlink="http://www.w3.org/1999/xlink" id="Layer_1" width="48" height="48" x="0" y="0" enable-background="new 0 0 48 48" version="1.1" viewBox="0 0 48 48" xml:space="preserve"><g><linearGradient id="SVGID_1_" x1="37.001" x2="37.001" y1="15" y2="8.999" gradientUnits="userSpaceOnUse"><stop offset="0" style="stop-color:#999"/><stop offset="1" style="stop-color:#666"/></linearGradient><circle cx="37" cy="12.001" r="2.999" fill="url(#SVGID_1_)"/></g><g><linearGradient id="SVGID_2_" x1="22" x2="22" y1="20" y2="13.998" gradientUnits="userSpaceOnUse"><stop offset="0" style="stop-color:#999"/><stop offset="1" style="stop-color:#666"/></linearGradient><circle cx="22" cy="17" r="2.999" fill="url(#SVGID_2_)"/></g><g><linearGradient id="SVGID_3_" x1="30" x2="30" y1="32.001" y2="25.999" gradientUnits="userSpaceOnUse"><stop offset="0" style="stop-color:#999"/><stop offset="1" style="stop-color:#666"/></linearGradient><circle cx="30" cy="29.001" r="2.999" fill="url(#SVGID_3_)"/></g><g><linearGradient id="SVGID_4_" x1="22" x2="22" y1="32" y2="25.999" gradientUnits="userSpaceOnUse"><stop offset="0" style="stop-color:#999"/><stop offset="1" style="stop-color:#666"/></linearGradient><circle cx="22" cy="29.001" r="2.999" fill="url(#SVGID_4_)"/></g><g><linearGradient id="SVGID_5_" x1="18" x2="18" y1="39" y2="32.999" gradientUnits="userSpaceOnUse"><stop offset="0" style="stop-color:#999"/><stop offset="1" style="stop-color:#666"/></linearGradient><circle cx="18" cy="36.001" r="2.999" fill="url(#SVGID_5_)"/></g><g><linearGradient id="SVGID_6_" x1="8.001" x2="8.001" y1="31.001" y2="25" gradientUnits="userSpaceOnUse"><stop offset="0" style="stop-color:#999"/><stop offset="1" style="stop-color:#666"/></linearGradient><circle cx="8" cy="28.001" r="2.999" fill="url(#SVGID_6_)"/></g><g><linearGradient id="SVGID_7_" x1="15.001" x2="15.001" y1="27.001" y2="21" gradientUnits="userSpaceOnUse"><stop offset="0" style="stop-color:#999"/><stop offset="1" style="stop-color:#666"/></linearGradient><circle cx="15" cy="24" r="2.999" fill="url(#SVGID_7_)"/></g><g><linearGradient id="SVGID_8_" x1="39.001" x2="39.001" y1="27" y2="20.999" gradientUnits="userSpaceOnUse"><stop offset="0" style="stop-color:#999"/><stop offset="1" style="stop-color:#666"/></linearGradient><circle cx="39" cy="24" r="2.999" fill="url(#SVGID_8_)"/></g><g><linearGradient id="SVGID_9_" x1="31" x2="31" y1="21" y2="14.999" gradientUnits="userSpaceOnUse"><stop offset="0" style="stop-color:#999"/><stop offset="1" style="stop-color:#666"/></linearGradient><circle cx="31" cy="18.001" r="2.999" fill="url(#SVGID_9_)"/></g><g><linearGradient id="SVGID_10_" x1="9.001" x2="9.001" y1="39.001" y2="32.999" gradientUnits="userSpaceOnUse"><stop offset="0" style="stop-color:#999"/><stop offset="1" style="stop-color:#666"/></linearGradient><circle cx="9" cy="36.001" r="2.999" fill="url(#SVGID_10_)"/></g><g><rect width="1.999" height="42.048" x="23" y="3.976" fill="#333" transform="matrix(0.4284 0.9036 -0.9036 0.4284 36.3094 -7.3957)"/></g></svg>