<svg xmlns="http://www.w3.org/2000/svg" xmlns:xlink="http://www.w3.org/1999/xlink" id="Layer_1" x="0" y="0" version="1.1" viewBox="0 0 48 48" xml:space="preserve" style="enable-background:new 0 0 48 48"><style type="text/css">.st0{fill:none;stroke:#777;stroke-width:2;stroke-miterlimit:10}.st1{fill:#777}.st2{fill:#333}</style><g><g><g><line x1="10.6" x2="28.6" y1="16.7" y2="10.3" class="st0"/><g><polygon points="27.7 13.1 27.9 10.6 26.2 8.7 32.1 9.1" class="st1"/></g></g></g><g><g><line x1="10.6" x2="28.5" y1="16.7" y2="21.2" class="st0"/><g><polygon points="26.3 23 27.8 21.1 27.4 18.6 32.1 22.1" class="st1"/></g></g></g><g><g><line x1="10.6" x2="29.9" y1="16.7" y2="33.3" class="st0"/><g><polygon points="27.1 33.9 29.3 32.8 30.1 30.5 32.7 35.8" class="st1"/></g></g></g><g><g><line x1="10.9" x2="28.6" y1="31.6" y2="37.7" class="st0"/><g><polygon points="26.2 39.3 27.9 37.5 27.7 35 32.1 38.9" class="st1"/></g></g></g><g><g><line x1="10.9" x2="28.7" y1="31.6" y2="26.4" class="st0"/><g><polygon points="27.6 29.1 27.9 26.6 26.3 24.7 32.2 25.4" class="st1"/></g></g></g><g><g><line x1="10.9" x2="29.9" y1="31.6" y2="15.1" class="st0"/><g><polygon points="30.1 18 29.4 15.6 27.1 14.5 32.7 12.7" class="st1"/></g></g></g><g><path d="M41.6,9.1c0-2.4-1.9-4.4-4.4-4.5c-2.4,0-4.4,1.9-4.5,4.4c0,2.4,1.9,4.4,4.4,4.5C39.5,13.5,41.5,11.6,41.6,9.1 z" class="st2"/></g><g><path d="M41.6,23.8c0-2.4-1.9-4.4-4.4-4.5c-2.4,0-4.4,1.9-4.5,4.4c0,2.4,1.9,4.4,4.4,4.5 C39.5,28.2,41.5,26.3,41.6,23.8z" class="st2"/></g><g><path d="M41.6,39c0-2.4-1.9-4.4-4.4-4.5c-2.4,0-4.4,1.9-4.5,4.4c0,2.4,1.9,4.4,4.4,4.5C39.5,43.4,41.5,41.4,41.6,39z" class="st2"/></g><g><path d="M15.3,31.4c0-2.4-1.9-4.4-4.4-4.5c-2.4,0-4.4,1.9-4.5,4.4c0,2.4,1.9,4.4,4.4,4.5 C13.2,35.8,15.2,33.8,15.3,31.4z" class="st2"/></g><g><path d="M15.3,16.8c0-2.4-1.9-4.4-4.4-4.5c-2.4,0-4.4,1.9-4.5,4.4c0,2.4,1.9,4.4,4.4,4.5 C13.2,21.1,15.2,19.2,15.3,16.8z" class="st2"/></g></g></svg>