<svg xmlns="http://www.w3.org/2000/svg" xmlns:svg="http://www.w3.org/2000/svg" id="Layer_1" width="48" height="48" x="0" y="0" enable-background="new 0 0 48 48" version="1.1" viewBox="0 0 48 48" xml:space="preserve"><metadata id="metadata101"/><g id="g3"><linearGradient id="SVGID_1_" x1="37.001" x2="37.001" y1="15" y2="8.999" gradientUnits="userSpaceOnUse"><stop style="stop-color:#999" id="stop6" offset="0"/><stop style="stop-color:#666" id="stop8" offset="1"/></linearGradient><circle id="circle10" cx="37" cy="12.001" r="2.999" fill="url(#SVGID_1_)"/></g><g id="g12" transform="translate(4.4745763,0.61016949)"><linearGradient id="SVGID_2_" x1="22" x2="22" y1="20" y2="13.998" gradientUnits="userSpaceOnUse"><stop style="stop-color:#999" id="stop15" offset="0"/><stop style="stop-color:#666" id="stop17" offset="1"/></linearGradient><circle id="circle19" cx="22" cy="17" r="2.999" d="m 24.999,17 c 0,1.656302 -1.342698,2.999 -2.999,2.999 -1.656302,0 -2.999,-1.342698 -2.999,-2.999 0,-1.656302 1.342698,-2.999 2.999,-2.999 1.656302,0 2.999,1.342698 2.999,2.999 z" style="fill:url(#SVGID_2_)"/></g><g id="g21"><linearGradient id="SVGID_3_" x1="30" x2="30" y1="32.001" y2="25.999" gradientUnits="userSpaceOnUse"><stop style="stop-color:#999" id="stop24" offset="0"/><stop style="stop-color:#666" id="stop26" offset="1"/></linearGradient><circle id="circle28" cx="30" cy="29.001" r="2.999" fill="url(#SVGID_3_)"/></g><g id="g30"><linearGradient id="SVGID_4_" x1="22" x2="22" y1="32" y2="25.999" gradientUnits="userSpaceOnUse"><stop style="stop-color:#999" id="stop33" offset="0"/><stop style="stop-color:#666" id="stop35" offset="1"/></linearGradient><circle id="circle37" cx="22" cy="29.001" r="2.999" fill="url(#SVGID_4_)"/></g><g id="g39" transform="translate(-3.6610169,-4.0677967)"><linearGradient id="SVGID_5_" x1="18" x2="18" y1="39" y2="32.999" gradientUnits="userSpaceOnUse"><stop style="stop-color:#999" id="stop42" offset="0"/><stop style="stop-color:#666" id="stop44" offset="1"/></linearGradient><circle id="circle46" cx="18" cy="36.001" r="2.999" d="M 20.999,36.000999 C 20.999,37.657301 19.656302,39 18,39 c -1.656302,0 -2.999,-1.342699 -2.999,-2.999001 0,-1.656302 1.342698,-2.999 2.999,-2.999 1.656302,0 2.999,1.342698 2.999,2.999 z" style="fill:url(#SVGID_5_)"/></g><g id="g48"><linearGradient id="SVGID_6_" x1="8.001" x2="8.001" y1="31.001" y2="25" gradientUnits="userSpaceOnUse"><stop style="stop-color:#999" id="stop51" offset="0"/><stop style="stop-color:#666" id="stop53" offset="1"/></linearGradient><circle id="circle55" cx="8" cy="28.001" r="2.999" fill="url(#SVGID_6_)"/></g><g id="g57" transform="translate(0,-3.2542373)"><linearGradient id="SVGID_7_" x1="15.001" x2="15.001" y1="27.001" y2="21" gradientUnits="userSpaceOnUse"><stop style="stop-color:#999" id="stop60" offset="0"/><stop style="stop-color:#666" id="stop62" offset="1"/></linearGradient><circle id="circle64" cx="15" cy="24" r="2.999" d="m 17.999,24 c 0,1.656302 -1.342698,2.999 -2.999,2.999 -1.656302,0 -2.999,-1.342698 -2.999,-2.999 0,-1.656302 1.342698,-2.999 2.999,-2.999 1.656302,0 2.999,1.342698 2.999,2.999 z" style="fill:url(#SVGID_7_)"/></g><g id="g66"><linearGradient id="SVGID_8_" x1="39.001" x2="39.001" y1="27" y2="20.999" gradientUnits="userSpaceOnUse"><stop style="stop-color:#999" id="stop69" offset="0"/><stop style="stop-color:#666" id="stop71" offset="1"/></linearGradient><circle id="circle73" cx="39" cy="24" r="2.999" fill="url(#SVGID_8_)"/></g><g id="g75" transform="translate(5.8983051,17.288136)"><linearGradient id="SVGID_9_" x1="31" x2="31" y1="21" y2="14.999" gradientUnits="userSpaceOnUse"><stop style="stop-color:#999" id="stop78" offset="0"/><stop style="stop-color:#666" id="stop80" offset="1"/></linearGradient><circle id="circle82" cx="31" cy="18.001" r="2.999" d="M 33.999,18.000999 C 33.999,19.657301 32.656302,21 31,21 c -1.656302,0 -2.999,-1.342699 -2.999,-2.999001 0,-1.656302 1.342698,-2.999 2.999,-2.999 1.656302,0 2.999,1.342698 2.999,2.999 z" style="fill:url(#SVGID_9_)"/></g><g id="g84" transform="translate(-4.0677966,0.61016949)"><linearGradient id="SVGID_10_" x1="9" x2="9" y1="39.001" y2="32.999" gradientUnits="userSpaceOnUse"><stop style="stop-color:#999" id="stop87" offset="0"/><stop style="stop-color:#666" id="stop89" offset="1"/></linearGradient><circle id="circle91" cx="9" cy="36.001" r="2.999" d="M 11.999,36.000999 C 11.999,37.657301 10.656302,39 9,39 7.343698,39 6.0009999,37.657301 6.0009999,36.000999 c 0,-1.656302 1.3426981,-2.999 2.9990001,-2.999 1.656302,0 2.999,1.342698 2.999,2.999 z" style="fill:url(#SVGID_10_)"/></g><path style="fill:none;stroke:#000;stroke-width:1.6;stroke-linecap:butt;stroke-linejoin:miter;stroke-miterlimit:4;stroke-opacity:1;stroke-dasharray:none" id="path3082" d="M 24.110356,26.11598 C 35.913841,39.133022 43.629925,11.235199 43.629925,11.235199"/><path style="fill:none;stroke:#000;stroke-width:1.6;stroke-linecap:butt;stroke-linejoin:miter;stroke-miterlimit:4;stroke-opacity:1;stroke-dasharray:none" id="path3082-8" d="M 24.110356,26.170555 C 12.306871,13.153512 4.5907866,41.051337 4.5907866,41.051337"/></svg>