<svg xmlns="http://www.w3.org/2000/svg" xmlns:xlink="http://www.w3.org/1999/xlink" id="Layer_1" width="48" height="48" x="0" y="0" enable-background="new 0 0 48 48" version="1.1" viewBox="0 0 48 48" xml:space="preserve"><rect width=".999" height="2.865" x="28.113" y="18.579" fill="#333" transform="matrix(0.6958 0.7183 -0.7183 0.6958 23.078 -14.463)"/><rect width=".999" height="2.865" x="32.225" y="14.591" fill="#333" transform="matrix(0.6958 0.7183 -0.7183 0.6958 21.4644 -18.63)"/><rect width=".999" height="2.864" x="36.338" y="10.603" fill="#333" transform="matrix(0.6958 0.7183 -0.7183 0.6958 19.8513 -22.7976)"/><rect width="1" height="2.865" x="11.661" y="34.533" fill="#333" transform="matrix(-0.6953 -0.7187 0.7187 -0.6953 -5.2323 69.7114)"/><rect width="1" height="2.863" x="15.774" y="30.545" fill="#333" transform="matrix(-0.6963 -0.7178 0.7178 -0.6963 4.6531 65.923)"/><rect width="1" height="2.865" x="19.887" y="26.556" fill="#333" transform="matrix(-0.6953 -0.7187 0.7187 -0.6953 14.4455 62.1008)"/><path fill="#333" d="M9.19,40c0.311-1.485,1.055-4.244,2.672-6.993c2.714-4.614,6.661-7.25,11.751-7.864l0.206,0.213l0.269-0.26	C24.71,25.036,25.345,25,26,25c4.834,0,8.686-1.485,11.447-4.414c4.982-5.284,4.571-13.306,4.551-13.645l-1.996,0.117	c0.001,0.018,0.023,0.477-0.005,1.218l-0.422,0.409l0.375,0.387c-0.193,2.545-0.973,6.976-3.958,10.141	C33.623,21.726,30.262,23,26,23c-0.157,0-0.305,0.012-0.46,0.015l-0.36-0.371l-0.409,0.397C14.065,23.625,9.693,31.754,8,36.836V40	H9.19z"/><polygon fill="#B2B2B2" points="9.19 40 8 40 8 36.836 8 6 6 6 6 40 6 42 8 42 42 42 42 40"/></svg>