<svg xmlns="http://www.w3.org/2000/svg" xmlns:xlink="http://www.w3.org/1999/xlink" id="Layer_1" width="24" height="24" x="0" y="0" enable-background="new 0 0 24 24" version="1.1" viewBox="0 0 24 24" xml:space="preserve"><g><g><rect width="1.387" height="5.215" x="18.871" y="1.525" fill="#333" transform="matrix(0.7078 0.7064 -0.7064 0.7078 8.636 -12.6124)"/></g><g><rect width="5.214" height="1.386" x="16.956" y="3.439" fill="#333" transform="matrix(0.7072 0.707 -0.707 0.7072 8.648 -12.6204)"/></g></g><g><polygon fill="#333" points="3.271 14.568 1.361 12.658 2.162 11.857 3.271 12.965 5.89 10.346 6.689 11.148"/></g><path fill="#FFF" stroke="#000" stroke-miterlimit="10" d="M2.292,21.874"/><g><polygon fill="#333" points="11.965 6.245 10.054 4.334 10.854 3.533 11.965 4.64 14.581 2.021 15.381 2.823"/></g><g><g><rect width="1.385" height="5.216" x="3.332" y="15.569" fill="#333" transform="matrix(0.7076 0.7066 -0.7066 0.7076 14.02 2.4705)"/></g><g><rect width="5.214" height="1.384" x="1.416" y="17.481" fill="#333" transform="matrix(0.707 0.7072 -0.7072 0.707 14.0306 2.4792)"/></g></g><circle cx="19.562" cy="18.178" r="2.525" fill="#333"/><circle cx="12.721" cy="12.458" r="2.525" fill="#333"/><g><circle cx="19.562" cy="12.457" r="2.399" fill="#7A7C7D"/></g><g><circle cx="12.718" cy="18.178" r="2.399" fill="#7A7C7D"/></g><path fill="#FFF" stroke="#000" stroke-miterlimit="10" d="M2.292,21.874"/><path fill="#FFF" stroke="#000" stroke-miterlimit="10" d="M26.297,21.874"/><polyline fill="none" stroke="#333" stroke-miterlimit="10" points="1.36 7.682 21.876 7.682 22.641 7.682"/><line x1="7.794" x2="7.794" y1="1.882" y2="22.201" fill="none" stroke="#333" stroke-miterlimit="10"/></svg>