<svg xmlns="http://www.w3.org/2000/svg" xmlns:xlink="http://www.w3.org/1999/xlink" id="Layer_1" width="48" height="48" x="0" y="0" enable-background="new 0 0 48 48" version="1.1" viewBox="0 0 48 48" xml:space="preserve"><g><rect width="7" height="7" x="34" y="20.5" fill="#333"/></g><g><path fill="#333" d="M9.692,20.596c-1.883,0.446-3.045,2.336-2.597,4.216c0.45,1.88,2.337,3.042,4.217,2.591 c1.877-0.444,3.039-2.331,2.592-4.211C13.459,21.309,11.57,20.147,9.692,20.596z"/></g><g><path fill="#333" d="M17.691,20.596c-1.882,0.447-3.044,2.336-2.596,4.216c0.449,1.88,2.336,3.042,4.217,2.591 c1.877-0.445,3.039-2.332,2.592-4.211C21.459,21.31,19.57,20.148,17.691,20.596z"/></g><polygon fill="#666" points="33 24 28 20.5 28 23 23 23 23 25 28 25 28 27.5"/></svg>