<svg xmlns="http://www.w3.org/2000/svg" xmlns:xlink="http://www.w3.org/1999/xlink" id="Layer_1" x="0" y="0" version="1.1" viewBox="0 0 48 48" xml:space="preserve" style="enable-background:new 0 0 48 48"><style type="text/css">.st0{fill:none;stroke:#b2b2b2;stroke-width:2;stroke-miterlimit:10}.st1{fill:#989898}.st2{fill:none;stroke:#333;stroke-width:2;stroke-miterlimit:10}.st3{fill:#333}</style><g><g><g><line x1="23.9" x2="23.9" y1="5.4" y2="24.9" class="st0"/><line x1="23.9" x2="40.2" y1="24.9" y2="34.9" class="st0"/><path d="M23.9,24.9" class="st0"/><line x1="23.9" x2="7.5" y1="24.9" y2="34.9" class="st0"/></g><g><circle cx="10" cy="15.9" r="2.6" class="st1"/></g><g><circle cx="16.1" cy="10.2" r="2.6" class="st1"/></g><g><circle cx="17.4" cy="19.9" r="2.6" class="st1"/></g><g><circle cx="9.8" cy="25" r="2.6" class="st1"/></g><g><circle cx="30.9" cy="22.5" r="2.6" class="st1"/></g><g><circle cx="37" cy="16.9" r="2.6" class="st1"/></g><g><circle cx="38.4" cy="26.6" r="2.6" class="st1"/></g><g><circle cx="30.2" cy="10.2" r="2.6" class="st1"/></g><g><circle cx="23.4" cy="31.9" r="2.6" class="st1"/></g><g><circle cx="17.1" cy="35.9" r="2.6" class="st1"/></g><g><circle cx="29.2" cy="36.4" r="2.6" class="st1"/></g></g><g><g><g><line x1="32" x2="42.5" y1="4" y2="10.4" class="st2"/><g><polygon points="40.2 12.5 46.1 12.6 43.3 7.4" class="st3"/></g></g></g><g><g><line x1="32.3" x2="20.1" y1="42.4" y2="42.4" class="st2"/><g><polygon points="20.9 39.5 15.8 42.4 20.9 45.4" class="st3"/></g></g></g><g><g><line x1="2.4" x2="12.8" y1="11.2" y2="4.8" class="st2"/><g><polygon points="13.6 7.8 16.5 2.6 10.5 2.7" class="st3"/></g></g></g></g></g></svg>