<svg xmlns="http://www.w3.org/2000/svg" xmlns:xlink="http://www.w3.org/1999/xlink" id="Layer_1" width="48" height="48" x="0" y="0" enable-background="new 0 0 48 48" version="1.1" viewBox="0 0 48 48" xml:space="preserve"><g><rect width="4.999" height="5" x="9" y="9" fill="#A8A8A8"/><rect width="4.999" height="5" x="14" y="9" fill="#AEAEAE"/><rect width="5" height="5" x="19.001" y="9" fill="#C2C2C2"/><rect width="4.999" height="5" x="24.001" y="9" fill="#F7F7F7"/><rect width="5" height="5" x="29.001" y="9" fill="#4D4D4D"/><rect width="4.999" height="5" x="34.001" y="9" fill="#333"/><rect width="4.999" height="5" x="9" y="14" fill="#CCC"/><rect width="4.999" height="5" x="14" y="14" fill="#ECECEC"/><rect width="5" height="5" x="19.001" y="14" fill="#6D6D6D"/><rect width="4.999" height="5" x="24.001" y="14" fill="#DADADA"/><rect width="5" height="5" x="29.001" y="14" fill="#797979"/><rect width="4.999" height="5" x="34.001" y="14" fill="#595959"/><rect width="4.999" height="5" x="9" y="19" fill="#F0F0F0"/><rect width="4.999" height="5" x="14" y="19" fill="#ECECEC"/><rect width="5" height="5" x="19.001" y="19" fill="#939393"/><rect width="4.999" height="5" x="24.001" y="19" fill="#A4A4A4"/><rect width="5" height="5" x="29.001" y="19" fill="#F7F7F7"/><rect width="4.999" height="5" x="34.001" y="19" fill="#757575"/><rect width="4.999" height="5" x="9" y="24" fill="#7C7C7C"/><rect width="4.999" height="5" x="14" y="24" fill="#BBB"/><rect width="5" height="5" x="19.001" y="24" fill="#A4A4A4"/><rect width="4.999" height="5" x="24.001" y="24" fill="#8F8F8F"/><rect width="5" height="5" x="29.001" y="24" fill="#E6E6E6"/><rect width="4.999" height="5" x="34.001" y="24" fill="#757575"/><rect width="4.999" height="5" x="9" y="29" fill="#858585"/><rect width="4.999" height="5" x="14" y="29" fill="#DADADA"/><rect width="5" height="5" x="19.001" y="29" fill="#777"/><rect width="4.999" height="5" x="24.001" y="29" fill="#686868"/><rect width="5" height="5" x="29.001" y="29" fill="#939393"/><rect width="4.999" height="5" x="34.001" y="29" fill="#A4A4A4"/><rect width="4.999" height="5" x="9" y="34" fill="#878787"/><rect width="4.999" height="5" x="14" y="34" fill="#575757"/><rect width="5" height="5" x="19.001" y="34" fill="#979797"/><rect width="4.999" height="5" x="24.001" y="34" fill="#676767"/><rect width="5" height="5" x="29.001" y="34" fill="#737373"/><rect width="4.999" height="5" x="34.001" y="34" fill="#E8E8E8"/></g></svg>