<svg xmlns="http://www.w3.org/2000/svg" xmlns:xlink="http://www.w3.org/1999/xlink" id="Layer_1" width="24" height="24" x="0" y="0" enable-background="new 0 0 24 24" version="1.1" viewBox="0 0 24 24" xml:space="preserve"><path fill="#FFF" stroke="#000" stroke-miterlimit="10" d="M-0.138,22.004"/><line x1="3.125" x2="17.375" y1="8.249" y2="8.249" fill="none" stroke="#333" stroke-miterlimit="10"/><line x1="10.25" x2="10.25" y1="6.744" y2="9.754" fill="none" stroke="#333" stroke-miterlimit="10"/><line x1="3.375" x2="3.375" y1="6.745" y2="9.753" fill="none" stroke="#333" stroke-miterlimit="10"/><line x1="17.375" x2="17.375" y1="6.744" y2="9.754" fill="none" stroke="#333" stroke-miterlimit="10"/><line x1="13.75" x2="13.75" y1="7.122" y2="9.376" fill="none" stroke="#333" stroke-miterlimit="10"/><line x1="6.625" x2="6.625" y1="7.122" y2="9.376" fill="none" stroke="#333" stroke-miterlimit="10"/><line x1="6.625" x2="20.875" y1="15.549" y2="15.549" fill="none" stroke="#333" stroke-miterlimit="10"/><line x1="6.625" x2="6.625" y1="14.044" y2="17.055" fill="none" stroke="#333" stroke-miterlimit="10"/><line x1="20.875" x2="20.875" y1="14.044" y2="17.055" fill="none" stroke="#333" stroke-miterlimit="10"/><line x1="17.25" x2="17.25" y1="14.422" y2="16.676" fill="none" stroke="#333" stroke-miterlimit="10"/><line x1="10.25" x2="10.25" y1="3.87" y2="20.129" fill="none" stroke="#333" stroke-miterlimit="10"/><path fill="#FFF" stroke="#000" stroke-miterlimit="10" d="M26.111,23.051"/><line x1="29.625" x2="43.875" y1="8.858" y2="8.858" fill="none" stroke="#464545" stroke-miterlimit="10" stroke-width=".75"/><line x1="36.75" x2="36.75" y1="7.354" y2="10.363" fill="none" stroke="#464545" stroke-miterlimit="10" stroke-width=".75"/><line x1="29.625" x2="29.625" y1="7.354" y2="10.363" fill="none" stroke="#464545" stroke-miterlimit="10" stroke-width=".75"/><line x1="43.875" x2="43.875" y1="7.354" y2="10.363" fill="none" stroke="#464545" stroke-miterlimit="10" stroke-width=".75"/><line x1="40.25" x2="40.25" y1="7.731" y2="9.985" fill="none" stroke="#464545" stroke-miterlimit="10" stroke-width=".75"/><line x1="33.125" x2="33.125" y1="7.731" y2="9.985" fill="none" stroke="#464545" stroke-miterlimit="10" stroke-width=".75"/><line x1="33.125" x2="47.375" y1="16.158" y2="16.158" fill="none" stroke="#464545" stroke-miterlimit="10" stroke-width=".75"/><line x1="40.25" x2="40.25" y1="14.652" y2="17.663" fill="none" stroke="#464545" stroke-miterlimit="10" stroke-width=".75"/><line x1="33.125" x2="33.125" y1="14.652" y2="17.663" fill="none" stroke="#464545" stroke-miterlimit="10" stroke-width=".75"/><line x1="47.375" x2="47.375" y1="14.652" y2="17.663" fill="none" stroke="#464545" stroke-miterlimit="10" stroke-width=".75"/><line x1="43.75" x2="43.75" y1="15.031" y2="17.285" fill="none" stroke="#464545" stroke-miterlimit="10" stroke-width=".75"/><line x1="36.75" x2="36.75" y1="4.917" y2="21.176" fill="none" stroke="#333" stroke-miterlimit="10" stroke-width=".75"/><line x1="30.208" x2="44.458" y1="28.508" y2="28.508" fill="none" stroke="#333" stroke-miterlimit="10" stroke-width=".75"/><line x1="37.333" x2="37.333" y1="27.004" y2="30.014" fill="none" stroke="#333" stroke-miterlimit="10" stroke-width=".75"/><line x1="30.458" x2="30.458" y1="26.566" y2="29.576" fill="none" stroke="#333" stroke-miterlimit="10" stroke-width=".75"/><line x1="44.458" x2="44.458" y1="27.004" y2="30.014" fill="none" stroke="#333" stroke-miterlimit="10" stroke-width=".75"/><line x1="40.833" x2="40.833" y1="27.381" y2="29.635" fill="none" stroke="#333" stroke-miterlimit="10" stroke-width=".75"/><line x1="33.708" x2="33.708" y1="27.381" y2="29.635" fill="none" stroke="#333" stroke-miterlimit="10" stroke-width=".75"/><line x1="33.708" x2="47.958" y1="35.809" y2="35.809" fill="none" stroke="#333" stroke-miterlimit="10" stroke-width=".75"/><line x1="40.833" x2="40.833" y1="34.303" y2="37.312" fill="none" stroke="#333" stroke-miterlimit="10" stroke-width=".75"/><line x1="33.708" x2="33.708" y1="34.303" y2="37.312" fill="none" stroke="#333" stroke-miterlimit="10" stroke-width=".75"/><line x1="44.333" x2="44.333" y1="34.682" y2="36.936" fill="none" stroke="#333" stroke-miterlimit="10" stroke-width=".75"/><line x1="37.333" x2="37.333" y1="24.129" y2="40.389" fill="none" stroke="#333" stroke-miterlimit="10" stroke-width=".75"/><line x1="47.958" x2="47.958" y1="34.658" y2="37.668" fill="none" stroke="#333" stroke-miterlimit="10" stroke-width=".75"/><line x1="13.75" x2="13.75" y1="14.422" y2="16.676" fill="none" stroke="#333" stroke-miterlimit="10"/></svg>