<svg xmlns="http://www.w3.org/2000/svg" xmlns:xlink="http://www.w3.org/1999/xlink" id="Layer_1" width="48" height="48" x="0" y="0" enable-background="new 0 0 48 48" version="1.1" viewBox="0 0 48 48" xml:space="preserve"><g><circle cx="24" cy="15" r="2.999" fill="#989898"/></g><g><circle cx="31" cy="13.002" r="2.999" fill="#989898"/></g><g><circle cx="17" cy="12.002" r="2.999" fill="#989898"/></g><g><circle cx="16" cy="35" r="2.999" fill="#333"/></g><g><circle cx="18.998" cy="27" r="2.999" fill="#333"/></g><g><circle cx="11.999" cy="29" r="2.999" fill="#333"/></g><g><circle cx="36.001" cy="32.001" r="2.999" fill="#666"/></g><g><circle cx="29.002" cy="33.001" r="2.999" fill="#666"/></g><g><circle cx="35.002" cy="25" r="3" fill="#666"/></g><path fill="#B2B2B2" d="M46,23h-2.05C43.441,12.755,35.245,4.559,25,4.05V2h-2v2.05C12.755,4.559,4.559,12.755,4.05,23H2v2h2.05	C4.559,35.245,12.755,43.441,23,43.949V46h2v-2.051C35.245,43.441,43.441,35.245,43.95,25H46V23z M25,42.949V41h-2v1.949	C13.323,42.441,5.558,34.678,5.051,25H7v-2H5.051C5.558,13.323,13.323,5.558,23,5.051V7h2V5.051	C34.677,5.558,42.442,13.323,42.949,23H41v2h1.949C42.442,34.678,34.677,42.441,25,42.949z"/></svg>