<svg xmlns="http://www.w3.org/2000/svg" xmlns:xlink="http://www.w3.org/1999/xlink" id="Layer_1" width="48" height="48" x="0" y="0" enable-background="new 0 0 48 48" version="1.1" viewBox="0 0 48 48" xml:space="preserve"><g><rect width="4" height="3" x="17" y="38" fill="#666"/><rect width="4" height="4" x="17" y="33" fill="#666"/><rect width="4" height="3" x="7" y="38" fill="#666"/><rect width="4" height="4" x="17" y="28" fill="#666"/><rect width="4" height="3" x="12" y="38" fill="#666"/><rect width="4" height="4" x="12" y="28" fill="#666"/><rect width="4" height="4" x="7" y="28" fill="#666"/><rect width="4" height="4" x="12" y="33" fill="#666"/><rect width="4" height="4" x="7" y="33" fill="#666"/><rect width="4" height="4" x="27" y="12" fill="#333"/><rect width="4" height="4" x="22" y="12" fill="#333"/><rect width="4" height="4" x="32" y="12" fill="#333"/><rect width="4" height="4" x="27" y="17" fill="#333"/><rect width="4" height="4" x="22" y="17" fill="#333"/><rect width="4" height="4" x="37" y="17" fill="#333"/><rect width="4" height="4" x="37" y="12" fill="#333"/><rect width="4" height="4" x="32" y="17" fill="#333"/><rect width="4" height="4" x="22" y="28" fill="#666"/><rect width="4" height="3" x="27" y="38" fill="#666"/><rect width="4" height="4" x="22" y="33" fill="#666"/><rect width="4" height="4" x="37" y="33" fill="#666"/><rect width="4" height="3" x="22" y="38" fill="#666"/><rect width="4" height="3" x="37" y="38" fill="#666"/><rect width="4" height="3" x="32" y="38" fill="#666"/><rect width="4" height="4" x="27" y="33" fill="#666"/><rect width="4" height="4" x="27" y="28" fill="#666"/><rect width="4" height="4" x="32" y="33" fill="#666"/><rect width="4" height="4" x="32" y="28" fill="#666"/><rect width="4" height="4" x="27" y="23" fill="#666"/><rect width="4" height="4" x="22" y="23" fill="#666"/><rect width="4" height="4" x="32" y="23" fill="#666"/><rect width="4" height="4" x="37" y="28" fill="#666"/><rect width="4" height="4" x="37" y="23" fill="#666"/><rect width="4" height="3" x="27" y="7" fill="#333"/><rect width="4" height="3" x="22" y="7" fill="#333"/><rect width="4" height="3" x="37" y="7" fill="#333"/><rect width="4" height="3" x="32" y="7" fill="#333"/><rect width="4" height="4" x="7" y="22" fill="#333"/><rect width="4" height="4" x="17" y="22" fill="#333"/><rect width="4" height="4" x="12" y="22" fill="#333"/><rect width="4" height="4" x="17" y="17" fill="#333"/><rect width="4" height="4" x="17" y="12" fill="#333"/><rect width="4" height="4" x="7" y="17" fill="#333"/><rect width="4" height="4" x="12" y="17" fill="#333"/><rect width="4" height="4" x="17" y="7" fill="#333"/><rect width="4" height="4" x="12" y="7" fill="#333"/><rect width="4" height="4" x="7" y="7" fill="#333"/><rect width="4" height="4" x="7" y="12" fill="#333"/><rect width="4" height="4" x="12" y="12" fill="#333"/><rect width="1" height="4" x="11" y="28" fill="#989898"/><rect width="1" height="4" x="11" y="33" fill="#989898"/><rect width="1" height="3" x="11" y="38" fill="#989898"/><rect width="1" height="4" x="16" y="33" fill="#989898"/><rect width="1" height="3" x="16" y="38" fill="#989898"/><rect width="1" height="4" x="16" y="28" fill="#989898"/><rect width="1" height="4" x="11" y="17" fill="#666"/><rect width="1" height="4" x="11" y="7" fill="#666"/><rect width="1" height="4" x="11" y="22" fill="#666"/><rect width="1" height="4" x="11" y="12" fill="#666"/><rect width="1" height="4" x="16" y="7" fill="#666"/><rect width="1" height="4" x="16" y="12" fill="#666"/><rect width="1" height="4" x="16" y="22" fill="#666"/><rect width="1" height="4" x="16" y="17" fill="#666"/><rect width="1" height="3" x="26" y="7" fill="#666"/><rect width="1" height="3" x="31" y="7" fill="#666"/><rect width="1" height="3" x="36" y="7" fill="#666"/><rect width="1" height="4" x="26" y="12" fill="#666"/><rect width="1" height="4" x="26" y="17" fill="#666"/><rect width="1" height="4" x="31" y="12" fill="#666"/><rect width="1" height="4" x="31" y="17" fill="#666"/><rect width="1" height="4" x="36" y="17" fill="#666"/><rect width="1" height="4" x="36" y="12" fill="#666"/><rect width="1" height="4" x="26" y="23" fill="#989898"/><rect width="1" height="4" x="26" y="33" fill="#989898"/><rect width="1" height="4" x="26" y="28" fill="#989898"/><rect width="1" height="3" x="26" y="38" fill="#989898"/><rect width="1" height="4" x="31" y="28" fill="#989898"/><rect width="1" height="3" x="31" y="38" fill="#989898"/><rect width="1" height="4" x="31" y="23" fill="#989898"/><rect width="1" height="4" x="31" y="33" fill="#989898"/><rect width="1" height="4" x="36" y="33" fill="#989898"/><rect width="1" height="3" x="36" y="38" fill="#989898"/><rect width="1" height="4" x="36" y="28" fill="#989898"/><rect width="1" height="4" x="36" y="23" fill="#989898"/><rect width="4" height="1" x="12" y="37" fill="#989898"/><rect width="4" height="1" x="17" y="37" fill="#989898"/><rect width="4" height="1" x="7" y="37" fill="#989898"/><rect width="1" height="1" x="11" y="37" fill="#989898"/><rect width="1" height="1" x="16" y="37" fill="#989898"/><rect width="4" height="1" x="12" y="32" fill="#989898"/><rect width="4" height="1" x="17" y="32" fill="#989898"/><rect width="4" height="1" x="7" y="32" fill="#989898"/><rect width="1" height="1" x="11" y="32" fill="#989898"/><rect width="1" height="1" x="16" y="32" fill="#989898"/><rect width="4" height="1" x="27" y="37" fill="#989898"/><rect width="4" height="1" x="37" y="37" fill="#989898"/><rect width="4" height="1" x="32" y="37" fill="#989898"/><rect width="4" height="1" x="22" y="37" fill="#989898"/><rect width="1" height="1" x="26" y="37" fill="#989898"/><rect width="1" height="1" x="31" y="37" fill="#989898"/><rect width="1" height="1" x="36" y="37" fill="#989898"/><rect width="4" height="1" x="37" y="32" fill="#989898"/><rect width="4" height="1" x="32" y="32" fill="#989898"/><rect width="4" height="1" x="22" y="32" fill="#989898"/><rect width="4" height="1" x="27" y="32" fill="#989898"/><rect width="1" height="1" x="26" y="32" fill="#989898"/><rect width="1" height="1" x="31" y="32" fill="#989898"/><rect width="1" height="1" x="36" y="32" fill="#989898"/><rect width="4" height="1" x="32" y="27" fill="#989898"/><rect width="4" height="1" x="22" y="27" fill="#989898"/><rect width="4" height="1" x="37" y="27" fill="#989898"/><rect width="4" height="1" x="27" y="27" fill="#989898"/><rect width="1" height="1" x="26" y="27" fill="#989898"/><rect width="1" height="1" x="31" y="27" fill="#989898"/><rect width="1" height="1" x="36" y="27" fill="#989898"/><rect width="4" height="1" x="32" y="16" fill="#666"/><rect width="4" height="1" x="22" y="16" fill="#666"/><rect width="4" height="1" x="27" y="16" fill="#666"/><rect width="4" height="1" x="37" y="16" fill="#666"/><rect width="1" height="1" x="26" y="16" fill="#666"/><rect width="1" height="1" x="31" y="16" fill="#666"/><rect width="1" height="1" x="36" y="16" fill="#666"/><rect width="4" height="1" x="12" y="21" fill="#666"/><rect width="4" height="1" x="17" y="21" fill="#666"/><rect width="4" height="1" x="7" y="21" fill="#666"/><rect width="1" height="1" x="11" y="21" fill="#666"/><rect width="1" height="1" x="16" y="21" fill="#666"/><rect width="4" height="1" x="17" y="16" fill="#666"/><rect width="4" height="1" x="7" y="16" fill="#666"/><rect width="4" height="1" x="12" y="16" fill="#666"/><rect width="1" height="1" x="11" y="16" fill="#666"/><rect width="1" height="1" x="16" y="16" fill="#666"/><rect width="4" height="1" x="12" y="11" fill="#666"/><rect width="4" height="1" x="17" y="11" fill="#666"/><rect width="4" height="1" x="7" y="11" fill="#666"/><rect width="1" height="1" x="11" y="11" fill="#666"/><rect width="1" height="1" x="16" y="11" fill="#666"/></g></svg>