<svg xmlns="http://www.w3.org/2000/svg" xmlns:xlink="http://www.w3.org/1999/xlink" id="Layer_1" width="26" height="26" x="0" y="0" enable-background="new 0 0 26 26" version="1.1" viewBox="0 0 26 26" xml:space="preserve"><g><g><polygon fill="#666" points="20.985 6.971 19.729 6.971 19.729 4.368 12.186 3.208 4.643 4.368 4.643 6.971 3.386 6.971 3.386 3.289 12.186 1.936 20.985 3.289"/></g><g><polygon fill="#666" points="20 13.99 20 18 21 18 21 13.99 20.5 13.893"/><polygon fill="#666" points="20 10 20 12.718 20.5 12.621 21 12.718 21 10"/><polygon fill="#666" points="12 13.975 12 18 13 18 13 15.054 20 13.99 20 12.718"/><polygon fill="#666" points="21 12.718 21 13.99 23 14.377 23 13.105"/><polygon fill="#666" points="19.729 12.718 19.729 13.99 20.357 13.893 20.985 13.99 20.985 12.718 20.357 12.621"/><rect width="1" height="7" x="12" y="1" fill="#666"/><rect width="1" height="4" x="12" y="19" fill="#666"/></g><rect width="6" height="5" x="1" y="6" fill="#333"/><rect width="5" height="5" x="10" y="7" fill="#333"/><rect width="5" height="5" x="18" y="18" fill="#333"/><circle cx="12.186" cy="18.914" r="2.514" fill="#333"/><circle cx="20.357" cy="8.229" r="2.514" fill="#333"/></g></svg>