<svg xmlns="http://www.w3.org/2000/svg" xmlns:svg="http://www.w3.org/2000/svg" id="Layer_1" width="48" height="48" x="0" y="0" enable-background="new 0 0 48 48" version="1.1" viewBox="0 0 48 48" xml:space="preserve"><metadata id="metadata4304"/><path id="path4296" fill="#FFF" d="M25,8H13v32h22V17c0-4.123-8-1-8-1C28,12,27,8,25,8z"/><path id="path4298" fill="#333" d="M28,6H13h-2v2v32v2h2h22h2v-2V16v-2L28,6z M35,40H13V8h12c2,0,3,4,2,8c0,0,8-3.123,8,1V40z"/><rect style="opacity:1;fill:#333;fill-opacity:1;fill-rule:nonzero;stroke:none;stroke-width:3;stroke-linecap:square;stroke-linejoin:miter;stroke-miterlimit:4;stroke-dasharray:none;stroke-dashoffset:0;stroke-opacity:1" id="rect4308" width="5" height="2.045" x="14.073" y="16.955"/><rect id="rect4312" width="5" height="2.045" x="21.01" y="16.955" style="opacity:1;fill:#333;fill-opacity:1;fill-rule:nonzero;stroke:none;stroke-width:3;stroke-linecap:square;stroke-linejoin:miter;stroke-miterlimit:4;stroke-dasharray:none;stroke-dashoffset:0;stroke-opacity:1"/><rect style="opacity:1;fill:#333;fill-opacity:1;fill-rule:nonzero;stroke:none;stroke-width:3;stroke-linecap:square;stroke-linejoin:miter;stroke-miterlimit:4;stroke-dasharray:none;stroke-dashoffset:0;stroke-opacity:1" id="rect4314" width="5" height="2.045" x="28.003" y="16.955"/><rect id="rect4327" width="5" height="2.045" x="14.073" y="12.991" style="opacity:1;fill:#333;fill-opacity:1;fill-rule:nonzero;stroke:none;stroke-width:3;stroke-linecap:square;stroke-linejoin:miter;stroke-miterlimit:4;stroke-dasharray:none;stroke-dashoffset:0;stroke-opacity:1"/><rect style="opacity:1;fill:#333;fill-opacity:1;fill-rule:nonzero;stroke:none;stroke-width:3;stroke-linecap:square;stroke-linejoin:miter;stroke-miterlimit:4;stroke-dasharray:none;stroke-dashoffset:0;stroke-opacity:1" id="rect4329" width="5" height="2.045" x="21.01" y="12.991"/><rect id="rect4333" width="5" height="2.045" x="14.073" y="24.939" style="opacity:1;fill:#333;fill-opacity:1;fill-rule:nonzero;stroke:none;stroke-width:3;stroke-linecap:square;stroke-linejoin:miter;stroke-miterlimit:4;stroke-dasharray:none;stroke-dashoffset:0;stroke-opacity:1"/><rect style="opacity:1;fill:#333;fill-opacity:1;fill-rule:nonzero;stroke:none;stroke-width:3;stroke-linecap:square;stroke-linejoin:miter;stroke-miterlimit:4;stroke-dasharray:none;stroke-dashoffset:0;stroke-opacity:1" id="rect4335" width="5" height="2.045" x="21.01" y="24.939"/><rect id="rect4337" width="5" height="2.045" x="28.003" y="24.939" style="opacity:1;fill:#333;fill-opacity:1;fill-rule:nonzero;stroke:none;stroke-width:3;stroke-linecap:square;stroke-linejoin:miter;stroke-miterlimit:4;stroke-dasharray:none;stroke-dashoffset:0;stroke-opacity:1"/><rect style="opacity:1;fill:#333;fill-opacity:1;fill-rule:nonzero;stroke:none;stroke-width:3;stroke-linecap:square;stroke-linejoin:miter;stroke-miterlimit:4;stroke-dasharray:none;stroke-dashoffset:0;stroke-opacity:1" id="rect4339" width="5" height="2.045" x="14.073" y="20.974"/><rect id="rect4341" width="5" height="2.045" x="21.01" y="20.974" style="opacity:1;fill:#333;fill-opacity:1;fill-rule:nonzero;stroke:none;stroke-width:3;stroke-linecap:square;stroke-linejoin:miter;stroke-miterlimit:4;stroke-dasharray:none;stroke-dashoffset:0;stroke-opacity:1"/><rect style="opacity:1;fill:#333;fill-opacity:1;fill-rule:nonzero;stroke:none;stroke-width:3;stroke-linecap:square;stroke-linejoin:miter;stroke-miterlimit:4;stroke-dasharray:none;stroke-dashoffset:0;stroke-opacity:1" id="rect4343" width="5" height="2.045" x="28.003" y="20.974"/><g style="font-style:normal;font-variant:normal;font-weight:700;font-stretch:normal;font-size:9.23964787px;line-height:125%;font-family:sans-serif;-inkscape-font-specification:'sans-serif Bold';letter-spacing:0;word-spacing:0;fill:#000;fill-opacity:1;stroke:none;stroke-width:.1;stroke-linecap:butt;stroke-linejoin:miter;stroke-miterlimit:4;stroke-dasharray:none;stroke-opacity:1" id="text4345" transform="scale(0.98335939,1.0169222)"><path id="path4375" d="m 20.030514,36.789195 q -0.478224,0.248135 -0.997052,0.374458 -0.518828,0.126323 -1.082771,0.126323 -1.682807,0 -2.666324,-0.938401 -0.983518,-0.942914 -0.983518,-2.553536 0,-1.615134 0.983518,-2.553535 0.983517,-0.942914 2.666324,-0.942914 0.563943,0 1.082771,0.126324 0.518828,0.126323 0.997052,0.374458 l 0,1.394068 q -0.482736,-0.329343 -0.951937,-0.482735 -0.4692,-0.153393 -0.988028,-0.153393 -0.929379,0 -1.461742,0.595524 -0.532362,0.595524 -0.532362,1.642203 0,1.042167 0.532362,1.637692 0.532363,0.595524 1.461742,0.595524 0.518828,0 0.988028,-0.153393 0.469201,-0.153392 0.951937,-0.482735 l 0,1.394068 z"/><path id="path4377" d="m 26.324122,30.635445 0,1.425649 q -0.554921,-0.248135 -1.082772,-0.374459 -0.527851,-0.126323 -0.997052,-0.126323 -0.622593,0 -0.920355,0.171439 -0.297762,0.171439 -0.297762,0.532362 0,0.270693 0.198508,0.424086 0.203019,0.148881 0.73087,0.257158 l 0.739894,0.148881 q 1.123375,0.225577 1.597088,0.685755 0.473712,0.460178 0.473712,1.308349 0,1.114352 -0.663197,1.660249 -0.658686,0.541385 -2.016662,0.541385 -0.640639,0 -1.285791,-0.121811 -0.645151,-0.121812 -1.290302,-0.360924 l 0,-1.466253 q 0.645151,0.342878 1.245187,0.518828 0.604547,0.171439 1.163979,0.171439 0.568455,0 0.870729,-0.189485 0.302273,-0.189485 0.302273,-0.541386 0,-0.315808 -0.207531,-0.487247 -0.20302,-0.171439 -0.81659,-0.306785 l -0.67222,-0.148881 q -1.010587,-0.216554 -1.479788,-0.690267 -0.464689,-0.473712 -0.464689,-1.276767 0,-1.006075 0.649663,-1.547461 0.649662,-0.541386 1.86778,-0.541386 0.55492,0 1.141421,0.08572 0.586502,0.08121 1.213607,0.248135 z"/><path id="path4379" d="m 27.510658,30.423402 1.745969,0 1.786572,4.971725 1.782061,-4.971725 1.745969,0 -2.494885,6.73574 -2.0708,0 -2.494886,-6.73574 z"/></g></svg>