<svg xmlns="http://www.w3.org/2000/svg" xmlns:xlink="http://www.w3.org/1999/xlink" id="Layer_1" width="48" height="48" x="0" y="0" enable-background="new 0 0 48 48" version="1.1" viewBox="0 0 48 48" xml:space="preserve"><g><rect width="2" height="30" x="17" y="9" fill="#666"/><rect width="2" height="30" x="28" y="9" fill="#666"/><polygon fill="#333" points="13 22 13 24 9 24 9 25 2 25 2 31 9 31 13 31 16 31 16 22"/><rect width="7" height="14" x="20" y="17" fill="#333"/><polygon fill="#333" points="39 23 39 24 37 24 37 23 34 23 34 20 31 20 31 31 34 31 37 31 39 31 46 31 46 23"/></g></svg>