<svg xmlns="http://www.w3.org/2000/svg" xmlns:xlink="http://www.w3.org/1999/xlink" id="Layer_1" width="48" height="48" x="0" y="0" enable-background="new 0 0 48 48" version="1.1" viewBox="0 0 48 48" xml:space="preserve"><g><path fill="#333" d="M6,6v36h36V6H6z M40,18v1v10v1v10H30h-1H19h-1H8V30v-1V19v-1V8h10h1h10h1h10V18z"/><rect width="6" height="6" x="32" y="21" fill="#666"/><rect width="6" height="6" x="10" y="10" fill="#666"/><rect width="6" height="6" x="21" y="32" fill="#666"/><path fill="#666" d="M30,8h-1v10H19V8h-1v10H8v1h10v10H8v1h10v10h1V30h10v10h1V30h10v-1H30V19h10v-1H30V8z M29,29H19V19h10V29z"/><rect width="10" height="10" x="19" y="8" fill="#FFF"/><path fill="#B2B2B2" d="M19,30v10h10V30H19z M27,38h-6v-6h6V38z"/><path fill="#B2B2B2" d="M30,29h10V19H30V29z M32,21h6v6h-6V21z"/><path fill="#B2B2B2" d="M18,8H8v10h10V8z M16,16h-6v-6h6V16z"/><rect width="10" height="10" x="30" y="8" fill="#FFF"/><rect width="10" height="10" x="8" y="19" fill="#FFF"/><rect width="10" height="10" x="19" y="19" fill="#FFF"/><rect width="10" height="10" x="8" y="30" fill="#FFF"/><rect width="10" height="10" x="30" y="30" fill="#FFF"/></g></svg>