<svg xmlns="http://www.w3.org/2000/svg" xmlns:xlink="http://www.w3.org/1999/xlink" id="Layer_1" x="0" y="0" enable-background="new 33.5 271.5 48 48" version="1.1" viewBox="33.5 271.5 48 48" xml:space="preserve"><g><path fill="#333" d="M56.184,292.868v-5.265h-2.632H35.124v27.641h18.427h2.632v-6.581h-2.632v-5.265h2.632v-5.265h-2.632 v-5.265H56.184z M52.235,290.235v10.53v1.316v10.53h-6.581h-1.316h-6.581v-10.53v-1.316v-10.53l0,0h6.581h1.316H52.235 L52.235,290.235z"/><polygon fill="#666" points="45.654 290.235 44.338 290.235 44.338 300.765 37.757 300.765 37.757 302.081 44.338 302.081 44.338 312.611 45.654 312.611 45.654 302.081 52.235 302.081 52.235 300.765 45.654 300.765"/><rect width="6.581" height="10.53" x="45.654" y="302.081" fill="#FFF"/><rect width="6.581" height="10.53" x="37.757" y="302.081" fill="#FFF"/><rect width="6.581" height="10.53" x="45.654" y="290.235" fill="#FFF"/><rect width="6.581" height="10.53" x="37.757" y="290.235" fill="#FFF"/><path fill="#333" d="M61.449,275.757h-1.316v11.846h1.316v5.265h-2.632v5.265h2.632v5.265h-2.632v5.265h2.632v6.581h18.427 v-39.487H61.449z M77.243,278.389v10.53v1.316v10.53v1.316v10.53h-6.581h-1.316h-6.581v-10.53v-1.316v-10.53v-1.316v-10.53l0,0 h6.581l0,0h1.316l0,0H77.243L77.243,278.389z"/><polygon fill="#666" points="70.662 278.389 69.346 278.389 69.346 288.919 62.765 288.919 62.765 290.235 69.346 290.235 69.346 300.765 62.765 300.765 62.765 302.081 69.346 302.081 69.346 312.611 70.662 312.611 70.662 302.081 77.243 302.081 77.243 300.765 70.662 300.765 70.662 290.235 77.243 290.235 77.243 288.919 70.662 288.919"/><rect width="6.581" height="10.53" x="70.662" y="302.081" fill="#FFF"/><rect width="6.581" height="10.53" x="62.765" y="302.081" fill="#FFF"/><rect width="6.581" height="10.53" x="70.662" y="290.235" fill="#FFF"/><rect width="6.581" height="10.53" x="62.765" y="290.235" fill="#FFF"/><rect width="6.581" height="10.53" x="70.662" y="278.389" fill="#FFF"/><rect width="6.581" height="10.53" x="62.765" y="278.389" fill="#FFF"/></g></svg>