<svg xmlns="http://www.w3.org/2000/svg" xmlns:xlink="http://www.w3.org/1999/xlink" id="Layer_1" x="0" y="0" version="1.1" viewBox="0 0 48 48" xml:space="preserve" style="enable-background:new 0 0 48 48"><style type="text/css">.st1{fill:#333}.st3{fill:#b2b2b2}</style><g><g><path d="M14.5,10.6c0-2.2-1.7-4-3.9-4.1c-2.2,0-4,1.7-4.1,3.9c0,2.2,1.7,4,3.9,4.1C12.7,14.5,14.5,12.8,14.5,10.6z" class="st3"/></g><g><path d="M23.5,10.6c0-2.2-1.7-4-3.9-4.1c-2.2,0-4,1.7-4.1,3.9c0,2.2,1.7,4,3.9,4.1C21.7,14.5,23.5,12.8,23.5,10.6z" class="st1"/></g><g><path d="M14.5,19.6c0-2.2-1.7-4-3.9-4.1c-2.2,0-4,1.7-4.1,3.9c0,2.2,1.7,4,3.9,4.1C12.7,23.5,14.5,21.8,14.5,19.6z" class="st1"/></g><g><path d="M14.5,28.6c0-2.2-1.7-4-3.9-4.1c-2.2,0-4,1.7-4.1,3.9c0,2.2,1.7,4,3.9,4.1C12.7,32.5,14.5,30.8,14.5,28.6z" class="st3"/></g><g><path d="M23.5,28.6c0-2.2-1.7-4-3.9-4.1c-2.2,0-4,1.7-4.1,3.9c0,2.2,1.7,4,3.9,4.1C21.7,32.5,23.5,30.8,23.5,28.6z" class="st1"/></g><g><path d="M32.5,10.6c0-2.2-1.7-4-3.9-4.1c-2.2,0-4,1.7-4.1,3.9c0,2.2,1.7,4,3.9,4.1C30.7,14.5,32.5,12.8,32.5,10.6z" class="st3"/></g><g><path d="M41.5,10.6c0-2.2-1.7-4-3.9-4.1c-2.2,0-4,1.7-4.1,3.9c0,2.2,1.7,4,3.9,4.1C39.7,14.5,41.5,12.8,41.5,10.6z" class="st3"/></g><g><path d="M32.5,19.6c0-2.2-1.7-4-3.9-4.1c-2.2,0-4,1.7-4.1,3.9c0,2.2,1.7,4,3.9,4.1C30.7,23.5,32.5,21.8,32.5,19.6z" class="st1"/></g><g><path d="M41.5,19.6c0-2.2-1.7-4-3.9-4.1c-2.2,0-4,1.7-4.1,3.9c0,2.2,1.7,4,3.9,4.1C39.7,23.5,41.5,21.8,41.5,19.6z" class="st3"/></g><g><path d="M32.5,28.6c0-2.2-1.7-4-3.9-4.1c-2.2,0-4,1.7-4.1,3.9c0,2.2,1.7,4,3.9,4.1C30.7,32.5,32.5,30.8,32.5,28.6z" class="st3"/></g><g><path d="M41.5,28.6c0-2.2-1.7-4-3.9-4.1c-2.2,0-4,1.7-4.1,3.9c0,2.2,1.7,4,3.9,4.1C39.7,32.5,41.5,30.8,41.5,28.6z" class="st3"/></g><g><path d="M14.5,37.6c0-2.2-1.7-4-3.9-4.1c-2.2,0-4,1.7-4.1,3.9c0,2.2,1.7,4,3.9,4.1C12.7,41.5,14.5,39.8,14.5,37.6z" class="st3"/></g><g><path d="M23.5,37.6c0-2.2-1.7-4-3.9-4.1c-2.2,0-4,1.7-4.1,3.9c0,2.2,1.7,4,3.9,4.1C21.7,41.5,23.5,39.8,23.5,37.6z" class="st3"/></g><g><path d="M32.5,37.6c0-2.2-1.7-4-3.9-4.1c-2.2,0-4,1.7-4.1,3.9c0,2.2,1.7,4,3.9,4.1C30.7,41.5,32.5,39.8,32.5,37.6z" class="st3"/></g><g><path d="M41.5,37.6c0-2.2-1.7-4-3.9-4.1c-2.2,0-4,1.7-4.1,3.9c0,2.2,1.7,4,3.9,4.1C39.7,41.5,41.5,39.8,41.5,37.6z" class="st3"/></g><polygon points="23.3 18.2 20.8 18.2 20.8 15.7 18.2 15.7 18.2 18.2 15.7 18.2 15.7 20.8 18.2 20.8 18.2 23.3 20.8 23.3 20.8 20.8 23.3 20.8" class="st1"/></g></svg>