<svg xmlns="http://www.w3.org/2000/svg" xmlns:xlink="http://www.w3.org/1999/xlink" id="Layer_1" width="48" height="48" x="0" y="0" enable-background="new 0 0 48 48" version="1.1" viewBox="0 0 48 48" xml:space="preserve"><g><path fill="#333" d="M37,6L7,6v36h34V9.993L37,6z M15,8h18v8.993L32,18H16l-1-1.007V8z M37,40H11V24h2.995h17.972H37V40z"/><polygon fill="#FFF" points="13.995 24 11 24 11 40 37 40 37 24 31.967 24"/><path fill="#FFF" d="M32,18l1-1.007V8H15v8.993L16,18H32z M27,9h4v8h-4V9z"/><rect width="4" height="8" x="27" y="9" fill="#333"/></g></svg>