<svg xmlns="http://www.w3.org/2000/svg" xmlns:xlink="http://www.w3.org/1999/xlink" id="Layer_1" x="0" y="0" version="1.1" viewBox="-281 373 48 48" xml:space="preserve" style="enable-background:new -281 373 48 48"><style type="text/css">.st0{fill:#fff}.st1{fill:#333}.st2{fill:#666}.st3{fill:#b2b2b2}.st4{fill:#989898}.st5{fill:#231f20;stroke:#fff;stroke-width:1.67;stroke-miterlimit:10}</style><rect width="10" height="8" x="-251" y="405" class="st0"/><g><path d="M-275,379v36h36v-36H-275z M-241,387v8v1v8v9h-11h-10h-1h-10v-8v-1v-8v-1v-8l0,0h10l0,0h1l0,0h10l0,0h1l0,0 H-241L-241,387z" class="st1"/><polygon points="-262 404 -262 396 -262 395 -262 387 -263 387 -263 395 -273 395 -273 396 -263 396 -263 404 -273 404 -273 405 -263 405 -263 413 -262 413 -262 405" class="st2"/><polygon points="-251 387 -252 387 -252 395 -252 396 -252 404 -252 405 -252 413 -241 413 -241 404 -251 404 -251 396 -241 396 -241 395 -251 395" class="st2"/><rect width="10" height="8" x="-273" y="405" class="st0"/><rect width="10" height="8" x="-273" y="396" class="st0"/><polygon points="-273 387 -263 387 -263 387" class="st0"/><rect width="10" height="8" x="-273" y="387" class="st0"/><rect width="10" height="8" x="-262" y="405" class="st3"/><rect width="10" height="8" x="-262" y="396" class="st3"/><polygon points="-262 387 -252 387 -252 387" class="st3"/><rect width="10" height="8" x="-262" y="387" class="st3"/><rect width="10" height="8" x="-251" y="396" class="st0"/><rect width="10" height="8" x="-251" y="405" class="st0"/><polygon points="-251 387 -241 387 -241 387" class="st0"/><rect width="10" height="8" x="-251" y="387" class="st0"/><rect width="10" height="1" x="-262" y="395" class="st4"/><rect width="10" height="1" x="-262" y="404" class="st4"/></g><g><path d="M-261,390.6h-5c0-2.4,0.8-4.3,2.5-5.9c1.7-1.6,4-2.3,6.7-2.3c1.8,0,3.3,0.3,4.6,1c1.3,0.6,2.3,1.6,3,2.8 c0.8,1.2,1.1,2.5,1.1,3.8c0,0.7-0.1,1.4-0.4,2.2c-0.2,0.7-0.6,1.4-1.1,2.2c-0.3,0.4-1,1.2-2.2,2.2c-1.1,1-1.8,1.7-2.1,2.1 c-0.3,0.4-0.5,0.9-0.7,1.6c-0.2,0.7-0.3,1.6-0.4,2.8h-5.2l0-0.8c0-1.7,0.3-3.2,0.9-4.5c0.6-1.4,1.6-2.6,3-3.8 c1.3-1.1,2.2-1.9,2.4-2.4c0.3-0.4,0.4-0.9,0.4-1.5c0-0.8-0.3-1.5-1-2c-0.7-0.6-1.6-0.8-2.7-0.8c-1.2,0-2.1,0.3-2.9,1 C-260.6,388.7-261,389.5-261,390.6z M-257.4,405c0.9,0,1.7,0.3,2.4,0.9c0.7,0.6,1,1.4,1,2.2s-0.3,1.6-1,2.3 c-0.6,0.6-1.4,0.9-2.3,0.9c-0.9,0-1.7-0.3-2.3-0.9c-0.6-0.6-1-1.4-1-2.3c0-0.9,0.3-1.6,1-2.2C-259,405.3-258.3,405-257.4,405z" class="st5"/></g></svg>