<svg xmlns="http://www.w3.org/2000/svg" xmlns:xlink="http://www.w3.org/1999/xlink" id="Layer_1" width="48" height="48" x="0" y="0" enable-background="new 0 0 48 48" version="1.1" viewBox="0 0 48 48" xml:space="preserve"><g><path fill="#FFF" stroke="#000" stroke-miterlimit="10" stroke-width="2" d="M38.271,12.665v24.656 c0,2.27-6.389,4.109-14.272,4.109c-7.882,0-14.271-1.84-14.271-4.109V12.665c0-2.27,6.39-4.11,14.271-4.11 C31.883,8.555,38.271,10.395,38.271,12.665z"/><path fill="none" stroke="#000" stroke-miterlimit="10" d="M38.271,20.884c0,2.27-6.389,4.109-14.272,4.109 c-7.882,0-14.271-1.84-14.271-4.109"/><path fill="none" stroke="#000" stroke-miterlimit="10" d="M38.271,29.103c0,2.27-6.389,4.109-14.272,4.109 c-7.882,0-14.271-1.84-14.271-4.109"/><path fill="#FFF" stroke="#000" stroke-miterlimit="10" stroke-width="2" d="M38.271,13.047c0,2.27-6.389,4.109-14.272,4.109 c-7.882,0-14.271-1.84-14.271-4.109"/></g></svg>