<svg xmlns="http://www.w3.org/2000/svg" xmlns:xlink="http://www.w3.org/1999/xlink" id="Layer_1" width="48" height="48" x="0" y="0" enable-background="new 0 0 48 48" version="1.1" viewBox="0 0 48 48" xml:space="preserve"><g><path fill="#333" d="M6,6v36h36V6H6z M40,22L40,22v1l0,0v8l0,0v1l0,0v8h0H30h-1H19h-1H8l0,0V14l0,0h10h1h10h1h10h0V22z"/><path fill="#666" d="M30,14h-1v8H19v-8h-1v8H8v-8l0,0v26l0,0v-8h10v8h1v-8h10v8h1v-8h10v-1H30v-8h10v-1H30V14z M18,31H8v-8h10 V31z M29,31H19v-8h10V31z"/><rect width="10" height="8" x="8" y="32" fill="#FFF"/><rect width="10" height="8" x="8" y="23" fill="#FFF"/><rect width="10" height="8" x="8" y="14" fill="#FFF"/><rect width="10" height="8" x="19" y="32" fill="#FFF"/><rect width="10" height="8" x="19" y="23" fill="#FFF"/><rect width="10" height="8" x="19" y="14" fill="#FFF"/><rect width="0" height="8" x="40" y="32" fill="#FFF"/><rect width="10" height="8" x="30" y="32" fill="#FFF"/><rect width="0" height="8" x="40" y="23" fill="#FFF"/><rect width="10" height="8" x="30" y="23" fill="#FFF"/><rect width="0" height="8" x="40" y="14" fill="#FFF"/><rect width="10" height="8" x="30" y="14" fill="#FFF"/></g></svg>